<?xml version="1.0" encoding="utf-8"?>
<!-- Generator: Adobe Illustrator 24.0.0, SVG Export Plug-In . SVG Version: 6.00 Build 0)  -->
<svg version="1.1" baseProfile="tiny" xmlns="http://www.w3.org/2000/svg" xmlns:xlink="http://www.w3.org/1999/xlink" x="0px"
	 y="0px" viewBox="0 0 500 500" xml:space="preserve">
<g id="BACKGROUND" display="none">
</g>
<g id="OBJECTS">
	<g>
		<path fill="#035397" d="M442.63,381.98c50.72-95.71,25.89-231.44-88.14-265.79c71.41,10.98,109.48,60.03,127.67,109.42
			C468.86,112.62,364,60.65,268.4,86.68c-46.23,12.59-86.78,45.48-101.55,91.36c-14.37,44.62-5.24,87.4,12.59,106.86
			c17.59,19.19,48.39,29.54,71.08,22.46c22.24-6.94,28.97-23.91,27.47-38.32c-0.99-9.54-8.68-17.41-19.93-14.46
			c6.41,1.17,9.51,5.04,9.76,11.42c0.45,11.5-13.29,19.79-25.75,18.69c-26.08-2.3-36.38-34.12-27.34-62.36
			c20.36-63.61,93.32-60.87,128.77-41.38c44.95,24.72,70.36,83.07,50.41,142.68c-30.16,90.11-119.36,131.88-211.37,127.99
			c-17.14-0.72-34.77-3.65-46.22-8.06c14.57,10.07,48.3,25.75,78.88,31.52C284.89,488.22,389,472.88,442.63,381.98z"/>
		<path fill="#39A2DB" d="M242.59,421.71c46.23-12.59,86.78-45.48,101.55-91.36c14.37-44.62,6.88-84.56-12.59-106.86
			c-20.13-23.06-48.39-29.54-71.08-22.46c-22.24,6.94-28.97,23.91-27.47,38.32c0.99,9.54,8.68,17.41,19.93,14.46
			c-6.41-1.17-9.51-5.04-9.76-11.42c-0.45-11.5,13.29-19.79,25.75-18.69c26.08,2.3,35.53,31.91,26.34,60.1
			c-19.48,59.75-90.89,59.2-127.15,41.28c-42.34-20.92-65.88-79.21-51.03-140.31C139.25,93.58,219.2,45.7,306.4,45.57
			c27.32-0.04,61.37,8.07,72.82,12.48c-15.88-13.13-48.05-27.02-84.48-33.92c-41.11-7.78-89.06-1.8-132.76,17.81
			C86.1,76,37.18,152.92,42.46,236.48c3.88,61.46,35.83,118.63,100.67,143.72c-57.33-13.38-90.7-50.26-108.89-90.85
			C54.39,392.96,151.45,446.53,242.59,421.71z"/>
	</g>
</g>
</svg>
