<?xml version="1.0" encoding="utf-8"?>
<!-- Generator: Adobe Illustrator 24.0.0, SVG Export Plug-In . SVG Version: 6.00 Build 0)  -->
<svg version="1.1" xmlns="http://www.w3.org/2000/svg" xmlns:xlink="http://www.w3.org/1999/xlink" x="0px" y="0px"
	 viewBox="0 0 500 500" style="enable-background:new 0 0 500 500;" xml:space="preserve">
<style type="text/css">
	.st0{fill:#035397;}
	.st1{fill:#39A2DB;}
</style>
<g id="BACKGROUND">
</g>
<g id="OBJECTS">
	<g>
		<path class="st0" d="M343.74,313.78c22.34-41.83,11.41-101.14-38.83-116.15c31.46,4.8,48.23,26.24,56.24,47.82
			c-5.86-49.38-52.05-72.09-94.17-60.71c-20.37,5.5-38.23,19.88-44.74,39.93c-6.33,19.5-2.31,38.19,5.55,46.7
			c7.75,8.39,21.32,12.91,31.31,9.81c9.8-3.03,12.76-10.45,12.1-16.75c-0.44-4.17-3.82-7.61-8.78-6.32c2.83,0.51,4.19,2.2,4.3,4.99
			c0.2,5.02-5.85,8.65-11.34,8.17c-11.49-1.01-16.03-14.91-12.04-27.25c8.97-27.8,41.11-26.6,56.73-18.08
			c19.8,10.8,31,36.3,22.21,62.35c-13.29,39.38-52.58,57.63-93.12,55.93c-7.55-0.32-15.32-1.59-20.36-3.52
			c6.42,4.4,21.28,11.25,34.75,13.77C274.24,360.21,320.11,353.51,343.74,313.78z"/>
		<path class="st1" d="M255.61,331.15c20.37-5.5,38.23-19.88,44.74-39.93c6.33-19.5,3.03-36.95-5.55-46.7
			c-8.87-10.08-21.32-12.91-31.31-9.81c-9.8,3.03-12.76,10.45-12.1,16.75c0.44,4.17,3.82,7.61,8.78,6.32
			c-2.83-0.51-4.19-2.2-4.3-4.99c-0.2-5.02,5.85-8.65,11.34-8.17c11.49,1.01,15.65,13.94,11.6,26.27
			c-8.58,26.11-40.04,25.87-56.01,18.04c-18.65-9.14-29.02-34.61-22.48-61.32c9.77-39.85,44.99-60.78,83.4-60.83
			c12.03-0.02,27.04,3.53,32.08,5.46c-7-5.74-21.17-11.81-37.22-14.82c-18.11-3.4-39.24-0.79-58.49,7.78
			c-33.43,14.88-54.98,48.5-52.66,85.02c1.71,26.86,15.78,51.84,44.35,62.81c-25.26-5.85-39.96-21.96-47.97-39.7
			C172.7,318.58,215.45,341.99,255.61,331.15z"/>
		<circle class="st0" cx="364.08" cy="259.59" r="3.53"/>
		<circle class="st0" cx="365.08" cy="275.16" r="3.53"/>
		<path class="st0" d="M367.13,290.67c0,1.95-1.58,3.53-3.53,3.53c-1.95,0-3.53-1.58-3.53-3.53c0-1.95,1.58-3.53,3.53-3.53
			C365.55,287.14,367.13,288.72,367.13,290.67z"/>
		
			<ellipse transform="matrix(0.9893 -0.1456 0.1456 0.9893 -30.7219 25.5913)" class="st1" cx="159.48" cy="222.69" rx="3.53" ry="3.53"/>
		<path class="st1" d="M153.75,237.86c-0.15,1.94,1.3,3.64,3.24,3.79c1.94,0.15,3.64-1.3,3.79-3.24c0.15-1.94-1.3-3.64-3.24-3.79
			C155.6,234.46,153.9,235.92,153.75,237.86z"/>
		
			<ellipse transform="matrix(0.9885 -0.1509 0.1509 0.9885 -36.4824 26.6786)" class="st1" cx="157.54" cy="253.71" rx="3.53" ry="3.53"/>
	</g>
</g>
</svg>
